<svg xmlns="http://www.w3.org/2000/svg" viewBox="0 0 661.67 97.36"><defs><style>.a{fill:#fff;}.b{fill:#020202;}.c{fill:#231f20;}</style></defs><path class="a" d="M226.53,74.11a5.41,5.41,0,0,1-5.39-5.49V31.89L206.53,53.65a5.46,5.46,0,0,1-4.46,2.42,5.53,5.53,0,0,1-4.56-2.42l-14.6-21.76V68.62a5.4,5.4,0,1,1-10.79,0V14.12A5.38,5.38,0,0,1,175.94,9a5.27,5.27,0,0,1,6,2.14l20.09,29.76,20-29.76a5.27,5.27,0,0,1,6-2.14,5.38,5.38,0,0,1,3.81,5.11v54.5A5.41,5.41,0,0,1,226.53,74.11Z"/><path class="a" d="M265.4,74.39a25.62,25.62,0,1,1,25.67-25.58A25.62,25.62,0,0,1,265.4,74.39Zm0-40.46a14.84,14.84,0,1,0,14.79,14.88A14.84,14.84,0,0,0,265.4,33.93Z"/><path class="a" d="M343.52,14.22v54.5a5.42,5.42,0,0,1-10.69,1.2,24,24,0,0,1-13.67,4.19,23.42,23.42,0,0,1-17.67-7.72,25.94,25.94,0,0,1-6.7-17.86,26,26,0,0,1,6.7-18,23.41,23.41,0,0,1,17.67-7.71A24,24,0,0,1,332.73,27V14.22a5.4,5.4,0,1,1,10.79,0ZM332.73,48.53c0-8.64-5.76-14.88-13.57-14.88s-13.58,6.24-13.58,14.88,5.67,14.79,13.58,14.79S332.73,57.09,332.73,48.53Z"/><path class="a" d="M375.79,74.57a23.71,23.71,0,0,1-17.67-8,25.94,25.94,0,0,1-6.69-17.86c0-14.69,10.32-25.67,23.9-25.67S399,33.84,399,48.72a5.42,5.42,0,0,1-5.49,5.4H363.05c1.86,5.67,6.7,9.67,12.74,9.67,4.75,0,8.56-1.3,10.7-5.21a5.42,5.42,0,0,1,9.3,5.58C391.6,71.69,384.35,74.57,375.79,74.57ZM363,43.23h24.46a12.35,12.35,0,0,0-12.09-9.39A12.81,12.81,0,0,0,363,43.23Z"/><path class="a" d="M412.71,74.11a5.4,5.4,0,0,1-5.39-5.39V14.22a5.4,5.4,0,0,1,5.39-5.4,5.48,5.48,0,0,1,5.49,5.4v54.5A5.48,5.48,0,0,1,412.71,74.11Z"/><path class="a" d="M478.56,48.44a26.17,26.17,0,0,1-6.7,18,23.78,23.78,0,0,1-17.67,7.72A24.31,24.31,0,0,1,440.7,70V92a5.48,5.48,0,0,1-5.48,5.39,5.4,5.4,0,0,1-5.4-5.39V28.26a5.39,5.39,0,0,1,5.4-5.39,5.47,5.47,0,0,1,5.3,4.18,24.4,24.4,0,0,1,13.67-4.18,23.69,23.69,0,0,1,17.67,7.62A26.35,26.35,0,0,1,478.56,48.44Zm-10.79,0c0-8.55-5.67-14.79-13.58-14.79S440.7,39.89,440.7,48.44s5.68,14.79,13.49,14.79S467.77,57,467.77,48.44Z"/><path class="a" d="M492.32,74.11a5.39,5.39,0,0,1-5.39-5.39V14.22a5.39,5.39,0,0,1,5.39-5.4,5.48,5.48,0,0,1,5.49,5.4v54.5A5.48,5.48,0,0,1,492.32,74.11Z"/><path class="a" d="M554.91,28.26V68.72a5.42,5.42,0,0,1-10.7,1.2,23.94,23.94,0,0,1-13.67,4.19,23.45,23.45,0,0,1-17.67-7.72,26.36,26.36,0,0,1-6.69-17.86,26.44,26.44,0,0,1,6.69-18,23.44,23.44,0,0,1,17.67-7.71,23.93,23.93,0,0,1,13.67,4.18,5.42,5.42,0,0,1,10.7,1.21ZM544.12,48.53c0-8.64-5.76-14.88-13.58-14.88S517,39.89,517,48.53s5.68,14.79,13.58,14.79S544.12,57.09,544.12,48.53Z"/><path class="a" d="M606.24,45.09V68.72a5.44,5.44,0,0,1-10.88,0V45.09c0-5.48-3.07-11.44-10-11.44-6.23,0-10.88,4.93-10.88,11.44V68.72a5.4,5.4,0,0,1-10.79,0V28.26A5.41,5.41,0,0,1,574.07,26a21.17,21.17,0,0,1,11.34-3.16C597.22,22.87,606.24,32.45,606.24,45.09Z"/><path class="a" d="M638.51,74.57a23.71,23.71,0,0,1-17.67-8,25.94,25.94,0,0,1-6.69-17.86c0-14.69,10.32-25.67,23.9-25.67s23.62,10.79,23.62,25.67a5.42,5.42,0,0,1-5.48,5.4H625.77c1.86,5.67,6.7,9.67,12.74,9.67,4.75,0,8.56-1.3,10.7-5.21a5.42,5.42,0,0,1,9.3,5.58C654.33,71.69,647.07,74.57,638.51,74.57ZM625.68,43.23h24.46a12.35,12.35,0,0,0-12.09-9.39A12.81,12.81,0,0,0,625.68,43.23Z"/><path class="a" d="M49.28,49.9l-45-25S0,22.25,0,19.77V15.89A1.61,1.61,0,0,1,.34,14.8l14.58,2.7L59.71,43.92Z"/><path class="a" d="M68.93,38,18.59,12S11.07,7.07,3.43,11.4,3,21.06,3.76,21.5,52.45,48.06,52.45,48.06Z"/><path class="b" d="M71,5.38c.15.13.11-.1.1,0C71,7.1,71.9,8.17,73.08,9.1a36.59,36.59,0,0,0,6.5,3.7c2.22,1.1,4.51,2,6.71,3.21.87.45,1.78.83,2.67,1.24.29.13.4.33.1.53-.75.51.84,1.94.07,2.42-.09.05-.63.81-.75.82C84.86,19.2,79,16.47,75.46,14.61a10.52,10.52,0,0,1-3.86-2.95c-.57-.79-.49-2.47-.58-3.41A8.64,8.64,0,0,1,71,5.38Z"/><path class="a" d="M89.06,18.24c.3-.21.18-.41-.11-.54-.89-.41-1.8-.78-2.67-1.24-2.19-1.16-4.49-2.11-6.71-3.21a36.59,36.59,0,0,1-6.5-3.7C71.9,8.63,71.2,7.8,71.39,6.14a1.37,1.37,0,0,0-.37-.7C71.5,3.59,72.9,2.66,74.51,2a15.54,15.54,0,0,1,8-.94,16.16,16.16,0,0,1,5.84,1.74c3.46,1.77,6.9,3.57,10.35,5.35,1.16.59,2.34,1.17,3.5,1.78"/><path class="a" d="M85.29,21c-.4-.19-9.73-4.58-13.13-6.88C68.26,11.47,69.9,5.84,70,5.6a7.3,7.3,0,0,1,4.17-4.46,16.75,16.75,0,0,1,8.45-1A17.13,17.13,0,0,1,88.75,2l6.54,3.37,3.81,2,1.47.75,2,1-.82,1.56-2-1L98.3,8.88l-3.82-2C92.31,5.78,90.13,4.65,88,3.54a15.19,15.19,0,0,0-5.52-1.66,14.91,14.91,0,0,0-7.56.87,5.44,5.44,0,0,0-3.2,3.32c0,.08-1.35,4.67,1.47,6.58,3.29,2.23,12.8,6.7,12.9,6.75Z"/><polygon points="26.12 15.93 63.44 35.15 45.43 44.16 35.82 39.49 26.12 15.93"/><polygon class="a" points="35.55 38.95 48.09 45.5 44.18 47.04 37.09 43.18 35.55 38.95"/><rect class="a" x="41.51" y="4.21" width="1.76" height="42.04" transform="translate(0.63 51.5) rotate(-62.93)"/><path class="c" d="M10.72,64.54,109.19,6s3.68-2.1,6.87-1.92c1.92.11,7.48,2.43,8.15,5.12,1.78,7.17-8,11.76-8,11.76l-10.45,8.72L11.49,86.29A12.91,12.91,0,0,1,6.24,84,8.34,8.34,0,0,1,3,78.81C1.45,70.14,10.72,64.54,10.72,64.54Z"/><path class="a" d="M11.68,87.2l-.31,0a13.55,13.55,0,0,1-5.66-2.43A9.3,9.3,0,0,1,2.16,79C.5,69.81,9.86,64,10.26,63.79h0L108.74,5.26c.17-.1,4-2.25,7.37-2,2.2.12,8.15,2.56,9,5.78,1.85,7.45-7.24,12.15-8.4,12.72l-10.48,8.72Zm-.51-21.91c-.16.1-8.72,5.44-7.28,13.36a7.5,7.5,0,0,0,2.88,4.66,12.23,12.23,0,0,0,4.56,2L105.22,29l10.59-8.79c.09-.05,9.13-4.37,7.55-10.76C122.82,7.27,117.78,5.07,116,5c-2.9-.17-6.35,1.79-6.39,1.8Z"/><path class="a" d="M15,67.05,113.43,8.52s9.42-5.37,11.2,1.81-4.2,13.15-4.2,13.15L110,32.19,15.5,86.75S8.85,90,7.27,81.31,15,67.05,15,67.05Z"/><path class="c" d="M137.8,30.48a34.87,34.87,0,0,1,0,4.55A8.2,8.2,0,0,1,133.11,39c-7.89,2.5-11.86-.47-18.82-3.63l-12.5-6.17-.91-.48c-.41-.21-.5-3.12-.17-3.29l9.67-4.28Z"/><path class="a" d="M127.61,40.77c-4,0-7.15-1.52-10.86-3.3-.9-.43-1.83-.88-2.83-1.33l-3.87-1.91L101.4,30l-.92-.48c-.25-.12-.83-.43-.85-2.78,0-1.24.17-1.81.66-2.07l10-4.45,27,9.24,0-.07.76.34c1.1.51.43,5.63.42,5.68a9.12,9.12,0,0,1-5.17,4.44A19.3,19.3,0,0,1,127.61,40.77ZM101.51,28l.68.36,8.64,4.26,3.85,1.9c1,.45,1.92.9,2.83,1.34,5.37,2.58,8.92,4.28,15.34,2.25a7.56,7.56,0,0,0,4.08-3.37c0-.5.06-2.63,0-3.64l-26.55-9.07-9,4A8,8,0,0,0,101.51,28Zm-.22-.12h0Z"/><line class="a" x1="57.4" y1="53.54" x2="96.74" y2="75.05"/><path class="a" d="M114.6,16.75a1.06,1.06,0,0,1,1.15.05c1.59.7,3.09,1.69,4.74,2.24,6.05,3.07,8.24,4.36,14.39,7.24,3.49,1.63,3.69,3.75,3.7,4.5,0,.07-.08-.32-.19-.1a9.66,9.66,0,0,1-8.62,5.86c-5.3.14-10.13-2.55-14.79-4.79-5.84-2.88-8-3.57-13.77-6.61-.33-.2-.31-.25,0-.41C102.49,24,111.93,18.43,114.6,16.75Z"/><path class="a" d="M57,50.09v3.53l52,28.53s11.25,6.4,18.87,4.53,7.6-6.65,7.6-6.65V76.9L96.14,66.08,64,45.93Z"/><path class="a" d="M56.59,50.32l15.67-9.27,55.67,27.21s7.61,3.42,7.61,8.94-8.16,6.51-8.16,6.51-6.84,1.21-15.78-3.42S56.59,50.32,56.59,50.32Z"/><polygon points="57.4 50.33 72.98 41.03 84.92 46.85 96.74 71.84 57.4 50.33"/></svg>