<svg xmlns="http://www.w3.org/2000/svg" viewBox="0 0 659.41 98.83"><defs><style>.a{fill:#fff;}.b{fill:#f17067;}.c{fill:#f4807b;}.d{fill:#d9af65;}.e{fill:#f7d186;}.f{fill:#fcd630;}.g{fill:#f3bb1d;}.h{fill:#c18e3b;}.i{fill:#26b3ab;}.j{fill:#52c1b2;}.k{fill:#fbd62b;}</style></defs><path class="a" d="M224.27,75.58a5.41,5.41,0,0,1-5.39-5.49V33.36l-14.6,21.76a5.42,5.42,0,0,1-9,0l-14.6-21.76V70.09a5.39,5.39,0,1,1-10.78,0V15.59a5.38,5.38,0,0,1,3.81-5.11,5.27,5.27,0,0,1,6,2.14l20.09,29.76,20-29.76a5.27,5.27,0,0,1,6-2.14,5.38,5.38,0,0,1,3.81,5.11v54.5A5.41,5.41,0,0,1,224.27,75.58Z"/><path class="a" d="M263.14,75.86a25.63,25.63,0,1,1,25.67-25.58A25.62,25.62,0,0,1,263.14,75.86Zm0-40.46a14.84,14.84,0,1,0,14.79,14.88A14.84,14.84,0,0,0,263.14,35.4Z"/><path class="a" d="M341.26,15.68v54.5a5.42,5.42,0,0,1-10.69,1.21,24,24,0,0,1-13.67,4.19,23.44,23.44,0,0,1-17.67-7.72A25.94,25.94,0,0,1,292.53,50a26,26,0,0,1,6.7-18,23.44,23.44,0,0,1,17.67-7.72,24,24,0,0,1,13.58,4.1V15.68a5.39,5.39,0,0,1,10.78,0ZM330.48,50c0-8.65-5.77-14.88-13.58-14.88S303.32,41.35,303.32,50,309,64.79,316.9,64.79,330.48,58.56,330.48,50Z"/><path class="a" d="M373.53,76a23.68,23.68,0,0,1-17.67-8,25.91,25.91,0,0,1-6.69-17.85c0-14.7,10.32-25.67,23.9-25.67s23.62,10.79,23.62,25.67a5.41,5.41,0,0,1-5.49,5.39H360.79c1.86,5.68,6.7,9.67,12.74,9.67,4.75,0,8.56-1.3,10.7-5.2a5.42,5.42,0,1,1,9.3,5.58C389.34,73.16,382.09,76,373.53,76ZM360.7,44.7h24.46a12.34,12.34,0,0,0-12.09-9.39A12.8,12.8,0,0,0,360.7,44.7Z"/><path class="a" d="M410.45,75.58a5.4,5.4,0,0,1-5.39-5.4V15.68a5.4,5.4,0,0,1,5.39-5.39,5.48,5.48,0,0,1,5.49,5.39v54.5A5.48,5.48,0,0,1,410.45,75.58Z"/><path class="a" d="M476.3,49.91a26.17,26.17,0,0,1-6.7,18,23.78,23.78,0,0,1-17.67,7.72,24.25,24.25,0,0,1-13.48-4.09V93.43a5.48,5.48,0,0,1-5.49,5.4,5.39,5.39,0,0,1-5.39-5.4V29.73a5.39,5.39,0,0,1,5.39-5.4,5.48,5.48,0,0,1,5.3,4.19,24.41,24.41,0,0,1,13.67-4.19A23.69,23.69,0,0,1,469.6,32,26.33,26.33,0,0,1,476.3,49.91Zm-10.79,0c0-8.56-5.67-14.79-13.58-14.79s-13.48,6.23-13.48,14.79,5.67,14.79,13.48,14.79S465.51,58.47,465.51,49.91Z"/><path class="a" d="M490.06,75.58a5.39,5.39,0,0,1-5.39-5.4V15.68a5.39,5.39,0,0,1,5.39-5.39,5.48,5.48,0,0,1,5.49,5.39v54.5A5.48,5.48,0,0,1,490.06,75.58Z"/><path class="a" d="M552.65,29.73V70.18A5.42,5.42,0,0,1,542,71.39a24,24,0,0,1-13.68,4.19,23.45,23.45,0,0,1-17.67-7.72A26.41,26.41,0,0,1,503.92,50a26.47,26.47,0,0,1,6.69-18,23.45,23.45,0,0,1,17.67-7.72A24,24,0,0,1,542,28.52a5.42,5.42,0,0,1,10.69,1.21ZM541.86,50c0-8.65-5.76-14.88-13.58-14.88S514.71,41.35,514.71,50s5.67,14.79,13.57,14.79S541.86,58.56,541.86,50Z"/><path class="a" d="M604,46.56V70.18a5.45,5.45,0,0,1-10.89,0V46.56c0-5.49-3.06-11.44-10-11.44-6.23,0-10.88,4.93-10.88,11.44V70.18a5.4,5.4,0,1,1-10.79,0V29.73a5.41,5.41,0,0,1,10.33-2.23,21.18,21.18,0,0,1,11.34-3.17C595,24.33,604,33.91,604,46.56Z"/><path class="a" d="M636.26,76a23.65,23.65,0,0,1-17.67-8,25.87,25.87,0,0,1-6.7-17.85c0-14.7,10.32-25.67,23.9-25.67s23.62,10.79,23.62,25.67a5.41,5.41,0,0,1-5.48,5.39H623.51c1.86,5.68,6.7,9.67,12.75,9.67,4.74,0,8.55-1.3,10.69-5.2a5.42,5.42,0,0,1,9.3,5.58C652.07,73.16,644.81,76,636.26,76ZM623.42,44.7h24.46a12.34,12.34,0,0,0-12.09-9.39A12.8,12.8,0,0,0,623.42,44.7Z"/><path class="b" d="M49.28,48.11l-45-25S0,20.46,0,18V14.1A1.61,1.61,0,0,1,.34,13l14.58,2.7L59.71,42.13Z"/><path class="c" d="M68.93,36.23l-50.34-26S11.07,5.28,3.43,9.61s-.44,9.66.33,10.1S52.45,46.27,52.45,46.27Z"/><path class="d" d="M70.71,4.54a.44.44,0,0,1,.11.45c-.18,1.66.77,2.74,2,3.66a36.86,36.86,0,0,0,6.49,3.7c2.22,1.11,4.52,2.05,6.71,3.21.87.46,1.78.83,2.68,1.24.28.13.4.33.1.54-.75.5.84,1.93.07,2.41-.09.06-.24,0-.36,0-3.52-1.82-9.41-4.56-12.92-6.41a10.6,10.6,0,0,1-3.85-3,5.23,5.23,0,0,1-1-2.63A11.13,11.13,0,0,1,70.71,4.54Z"/><path class="e" d="M88.76,17.35c.29-.2.18-.4-.11-.53-.89-.41-1.8-.79-2.67-1.24-2.2-1.16-4.49-2.11-6.71-3.21a36.59,36.59,0,0,1-6.5-3.7c-1.18-.92-2.12-2-1.94-3.67a.45.45,0,0,0-.11-.45c.48-1.84,1.88-2.77,3.49-3.49a15.75,15.75,0,0,1,8-.94,16.43,16.43,0,0,1,5.84,1.75C91.51,3.64,95,5.44,98.4,7.21c1.16.6,2.34,1.18,3.49,1.79"/><polygon class="f" points="26.12 14.14 63.44 33.36 45.43 42.37 35.82 37.7 26.12 14.14"/><polygon class="g" points="35.55 37.16 48.09 43.71 44.18 45.25 37.09 41.39 35.55 37.16"/><path class="e" d="M10.72,62.75,109.19,4.22s3.68-2.1,6.87-1.92c1.92.11,7.48,2.43,8.15,5.12,1.78,7.17-8,11.76-8,11.76L105.73,27.9,10.54,85a27,27,0,0,1-4.9-2.93C4.51,81.27,3.52,79.72,3,77,1.45,68.35,10.72,62.75,10.72,62.75Z"/><path class="d" d="M15,65.26,113.43,6.73s9.42-5.37,11.2,1.81-4.2,13.15-4.2,13.15L110,30.4,15.5,85s-6.65,3.22-8.23-5.44S15,65.26,15,65.26Z"/><path class="h" d="M100.66,26.71l.26,8.9L114.25,28S100.35,26.71,100.66,26.71Z"/><path class="h" d="M57.42,51.69v9.09L71,53S57.11,51.69,57.42,51.69Z"/><path class="e" d="M114.08,15.87a1,1,0,0,1,1.13.05c1.57.69,3.05,1.66,4.66,2.2,6,3,8.22,4.08,14.17,7.13,2.9,1.37,4,5,3.71,5.68-.17.39-1.83,4.22-8.74,4.41-5.22.14-10-2.51-14.56-4.71-5.74-2.83-7.88-3.52-13.54-6.51-.33-.19-.31-.24,0-.4C102.16,23,111.45,17.52,114.08,15.87Z"/><path class="d" d="M100.71,23.61c-.3.15-.32.21,0,.4,5.67,3,7.8,3.68,13.55,6.51,6.45,3.25,14.52,7.11,21.39,2.8a9.79,9.79,0,0,0,2.15-2.66,11.24,11.24,0,0,1,0,2.58,8.2,8.2,0,0,1-4.66,3.94c-7.89,2.5-11.86-.47-18.82-3.63l-12.5-6.17-.91-.48C100.47,26.69,100.38,23.78,100.71,23.61Z"/><path class="i" d="M57.54,48.3v3.53l52,28.53s11.25,6.4,18.86,4.53,8-6.69,8-6.69V75.06L96.71,64.29Z"/><path class="j" d="M57.43,48.41l15.66-9.27,55.67,27.21s7.62,3.42,7.62,8.94-8.17,6.51-8.17,6.51-6.84,1.21-15.78-3.42S57.43,48.41,57.43,48.41Z"/><polygon class="k" points="57.4 48.4 72.98 39.1 84.92 44.92 96.74 69.91 57.4 48.4"/><polygon class="g" points="57.4 48.4 57.4 51.75 96.74 73.26 96.74 69.89 57.4 48.4"/></svg>