<svg xmlns="http://www.w3.org/2000/svg" viewBox="0 0 138 99">
  <path fill="#fff" d="M49.28,48.11l-45-25S0,20.46,0,18V14.1A1.61,1.61,0,0,1,.34,13l14.58,2.7L59.71,42.13Z"/>
  <path fill="#fff" d="M68.93,36.23l-50.34-26S11.07,5.28,3.43,9.61s-.44,9.66.33,10.1S52.45,46.27,52.45,46.27Z"/>
  <path fill="#fff" d="M70.71,4.54a.44.44,0,0,1,.11.45c-.18,1.66.77,2.74,2,3.66a36.86,36.86,0,0,0,6.49,3.7c2.22,1.11,4.52,2.05,6.71,3.21.87.46,1.78.83,2.68,1.24.28.13.4.33.1.54-.75.5.84,1.93.07,2.41-.09.06-.24,0-.36,0-3.52-1.82-9.41-4.56-12.92-6.41a10.6,10.6,0,0,1-3.85-3,5.23,5.23,0,0,1-1-2.63A11.13,11.13,0,0,1,70.71,4.54Z"/>
  <path fill="#fff" d="M88.76,17.35c.29-.2.18-.4-.11-.53-.89-.41-1.8-.79-2.67-1.24-2.2-1.16-4.49-2.11-6.71-3.21a36.59,36.59,0,0,1-6.5-3.7c-1.18-.92-2.12-2-1.94-3.67a.45.45,0,0,0-.11-.45c.48-1.84,1.88-2.77,3.49-3.49a15.75,15.75,0,0,1,8-.94,16.43,16.43,0,0,1,5.84,1.75C91.51,3.64,95,5.44,98.4,7.21c1.16.6,2.34,1.18,3.49,1.79"/>
  <polygon fill="#fff" points="26.12 14.14 63.44 33.36 45.43 42.37 35.82 37.7 26.12 14.14"/>
  <polygon fill="#fff" points="35.55 37.16 48.09 43.71 44.18 45.25 37.09 41.39 35.55 37.16"/>
  <path fill="#fff" d="M10.72,62.75,109.19,4.22s3.68-2.1,6.87-1.92c1.92.11,7.48,2.43,8.15,5.12,1.78,7.17-8,11.76-8,11.76L105.73,27.9,10.54,85a27,27,0,0,1-4.9-2.93C4.51,81.27,3.52,79.72,3,77,1.45,68.35,10.72,62.75,10.72,62.75Z"/>
  <path fill="#fff" d="M15,65.26,113.43,6.73s9.42-5.37,11.2,1.81-4.2,13.15-4.2,13.15L110,30.4,15.5,85s-6.65,3.22-8.23-5.44S15,65.26,15,65.26Z"/>
  <path fill="#fff" d="M100.66,26.71l.26,8.9L114.25,28S100.35,26.71,100.66,26.71Z"/>
  <path fill="#fff" d="M57.42,51.69v9.09L71,53S57.11,51.69,57.42,51.69Z"/>
  <path fill="#fff" d="M114.08,15.87a1,1,0,0,1,1.13.05c1.57.69,3.05,1.66,4.66,2.2,6,3,8.22,4.08,14.17,7.13,2.9,1.37,4,5,3.71,5.68-.17.39-1.83,4.22-8.74,4.41-5.22.14-10-2.51-14.56-4.71-5.74-2.83-7.88-3.52-13.54-6.51-.33-.19-.31-.24,0-.4C102.16,23,111.45,17.52,114.08,15.87Z"/>
  <path fill="#fff" d="M100.71,23.61c-.3.15-.32.21,0,.4,5.67,3,7.8,3.68,13.55,6.51,6.45,3.25,14.52,7.11,21.39,2.8a9.79,9.79,0,0,0,2.15-2.66,11.24,11.24,0,0,1,0,2.58,8.2,8.2,0,0,1-4.66,3.94c-7.89,2.5-11.86-.47-18.82-3.63l-12.5-6.17-.91-.48C100.47,26.69,100.38,23.78,100.71,23.61Z"/>
  <path fill="#fff" d="M57.54,48.3v3.53l52,28.53s11.25,6.4,18.86,4.53,8-6.69,8-6.69V75.06L96.71,64.29Z"/>
  <path fill="#fff" d="M57.43,48.41l15.66-9.27,55.67,27.21s7.62,3.42,7.62,8.94-8.17,6.51-8.17,6.51-6.84,1.21-15.78-3.42S57.43,48.41,57.43,48.41Z"/>
  <polygon fill="#fff" points="57.4 48.4 72.98 39.1 84.92 44.92 96.74 69.91 57.4 48.4"/>
  <polygon fill="#fff" points="57.4 48.4 57.4 51.75 96.74 73.26 96.74 69.89 57.4 48.4"/>
</svg>
